<?xml version="1.0" encoding="UTF-8" standalone="no"?>
<!-- Created with Inkscape (http://www.inkscape.org/) -->

<svg
     xmlns:dc="http://purl.org/dc/elements/1.1/"
     xmlns:cc="http://creativecommons.org/ns#"
     xmlns:rdf="http://www.w3.org/1999/02/22-rdf-syntax-ns#"
     xmlns:svg="http://www.w3.org/2000/svg"
     xmlns="http://www.w3.org/2000/svg"
     xmlns:sodipodi="http://sodipodi.sourceforge.net/DTD/sodipodi-0.dtd"
     xmlns:inkscape="http://www.inkscape.org/namespaces/inkscape"
     width="512"
     height="128"
     viewBox="0 0 512 128"
     id="svg2"
     version="1.1"
     inkscape:version="0.91 r13725"
     sodipodi:docname="logo.svg">
    <defs
         id="defs4" />
    <sodipodi:namedview
         id="base"
         pagecolor="#ffffff"
         bordercolor="#666666"
         borderopacity="1.0"
         inkscape:pageopacity="0.0"
         inkscape:pageshadow="2"
         inkscape:zoom="1.4"
         inkscape:cx="526.81426"
         inkscape:cy="131.91667"
         inkscape:document-units="px"
         inkscape:current-layer="layer1"
         showgrid="false"
         units="px"
         inkscape:showpageshadow="false"
         inkscape:window-width="2560"
         inkscape:window-height="1422"
         inkscape:window-x="0"
         inkscape:window-y="0"
         inkscape:window-maximized="1" />
    <metadata
         id="metadata7">
        <rdf:RDF>
            <cc:Work
                 rdf:about="">
                <dc:format>image/svg+xml</dc:format>
                <dc:type
                     rdf:resource="http://purl.org/dc/dcmitype/StillImage" />
                <dc:title></dc:title>
            </cc:Work>
        </rdf:RDF>
    </metadata>
    <g
         inkscape:label="Layer 1"
         inkscape:groupmode="layer"
         id="layer1"
         transform="translate(0,-924.36216)">
        <g
             id="g4243"
             transform="translate(0.46021712,-3.5358936)">
            <path
                 d="m 76.515629,955.14673 q -0.46875,-0.23438 -1.40625,2.69531 -0.82031,2.8125 -2.22656,7.38281 -1.40625,4.45313 -3.04688,10.19532 -1.52344,5.625 -3.39844,11.25 -1.875,5.625 -3.75,10.54687 -1.875,4.80466 -3.75,7.61716 -1.875,2.8125 -3.51562,3.1641 -1.64063,0.2344 -2.92969,-3.3984 -0.9375,-1.6407 -2.69531,-5.1563 -1.64063,-3.63281 -3.86719,-8.08593 -2.22656,-4.45313 -4.6875,-9.375 -2.46094,-4.92188 -4.6875,-9.25782 -2.10937,-4.45312 -3.98437,-7.96875 -1.75782,-3.51562 -2.57813,-5.15625 -1.40625,-2.57812 -2.57812,-4.10156 -1.05469,-1.64062 -3.39844,-1.64062 0,8.20312 0.9375,18.04687 0.9375,9.84375 1.99219,19.92188 1.17187,10.07808 2.10937,19.92188 0.9375,9.7266 0.9375,18.0469 0.46875,1.0547 -0.35156,1.9922 -0.70313,0.9375 -2.10938,1.4062 -1.28906,0.4688 -2.92968,0 -1.52344,-0.3516 -2.57813,-1.875 -1.05469,-10.4297 -1.17187,-21.2109 0,-10.89847 -0.11719,-21.79691 -0.11719,-10.89844 -0.9375,-21.79687 -0.82031,-11.01563 -3.28125,-21.91407 -0.11719,-2.10937 0.70312,-2.57812 0.82032,-0.58594 2.10938,-0.58594 2.8125,0 5.03906,1.40625 2.34375,1.28906 4.21875,3.39844 1.875,1.99219 3.28125,4.45312 1.52344,2.46094 2.69531,4.45313 0.9375,1.52344 2.57813,4.80469 l 3.75,7.61718 q 2.10937,4.21875 4.33594,8.90625 2.34375,4.57032 4.45312,8.78907 2.10938,4.10156 3.86719,7.38281 1.75781,3.16406 2.69531,4.57031 0.46875,0 0.82031,-0.35156 0.35157,-0.35156 0.9375,-1.99219 0.70313,-1.64062 1.75782,-5.03906 1.17187,-3.39844 3.16406,-9.375 1.99219,-5.97656 4.92187,-15.11719 2.92969,-9.14062 7.14844,-22.26562 0.23438,-0.58594 1.52344,-1.05469 1.28906,-0.46875 2.34375,-0.46875 1.05469,0 1.40625,0.70312 0.46875,0.70313 0.70312,2.34375 1.05469,9.96094 1.64063,20.85938 0.70312,10.78125 1.75781,21.91406 1.05469,11.01563 2.57813,21.91411 1.64062,10.8984 4.45312,20.7421 l -8.08594,3.1641 -6.79687,-78.04687 z"
                 style="font-style:normal;font-variant:normal;font-weight:normal;font-stretch:normal;font-size:120px;line-height:125%;font-family:'Shadows Into Light';-inkscape-font-specification:'Shadows Into Light, ';letter-spacing:0px;word-spacing:0px;fill:#000000;fill-opacity:1;stroke:none;stroke-width:1px;stroke-linecap:butt;stroke-linejoin:miter;stroke-opacity:1"
                 id="path4141"
                 inkscape:connector-curvature="0" />
            <path
                 d="m 103.46875,1030.0295 q 0,-9.4921 0.11719,-18.6328 0.11719,-9.1406 -0.11719,-18.16403 -0.23437,-9.02344 -0.9375,-18.04688 -0.70312,-9.14062 -2.10937,-18.51562 0,-0.23438 -0.35156,-0.9375 -0.23438,-0.70313 -0.46875,-1.40625 -0.23438,-0.82032 -0.46875,-1.40625 -0.23438,-0.58594 -0.23438,-0.82032 0,-0.58593 0.35156,-1.40625 0.46875,-0.82031 1.05469,-1.52343 0.70313,-0.82032 1.52344,-1.28907 0.82031,-0.46875 1.64062,-0.35156 1.40625,0.35156 2.22657,1.75781 0.9375,1.40625 1.40625,3.16407 0.46875,1.64062 0.58593,3.28125 0.23438,1.64062 0.23438,2.34375 3.51562,-1.875 7.85156,-3.98438 4.45313,-2.22656 9.02344,-3.98437 4.6875,-1.875 9.25781,-3.04688 4.6875,-1.28906 8.78906,-1.28906 0,1.05469 -0.46875,1.875 -0.35156,0.82031 -1.52343,1.40625 l -32.92969,16.52344 0,4.57031 q 0.11719,1.28906 0.23437,4.45312 0.23438,3.16407 0.46875,6.79688 0.23438,3.51562 0.35157,6.79687 0.23437,3.16407 0.35156,4.33594 l 24.14062,-13.47656 0.58594,-0.70313 q 0.58594,-0.70312 1.52344,-1.28906 0.9375,-0.58594 1.875,-0.58594 1.05469,-0.11718 1.99219,1.17188 0,2.10937 -2.10938,4.10156 -2.10937,1.99219 -5.27344,3.98438 -3.16406,1.99218 -6.91406,3.86718 -3.63281,1.875 -6.79687,3.63282 -3.16407,1.75781 -5.27344,3.51562 -2.10938,1.75781 -2.10938,3.28121 l 0,22.6172 q 1.52344,0.586 4.21875,-0.4687 2.8125,-1.1719 6.21094,-3.1641 3.39844,-1.9922 7.03125,-4.5703 3.63281,-2.6953 7.03125,-5.0391 3.51563,-2.3437 6.44531,-4.2187 3.04688,-1.875 5.03907,-2.2266 1.17187,0 2.10937,0.4688 0.9375,0.4687 0.9375,1.875 0,1.4062 -1.64062,2.2265 -4.10157,2.461 -9.49219,6.211 -5.27344,3.6328 -10.78125,7.3828 -5.50781,3.6328 -10.89844,6.6797 -5.27344,2.9297 -9.14062,3.8672 -1.52344,0 -2.46094,-0.2344 -0.9375,-0.2344 -2.10938,-1.4063 z"
                 style="font-style:normal;font-variant:normal;font-weight:normal;font-stretch:normal;font-size:120px;line-height:125%;font-family:'Shadows Into Light';-inkscape-font-specification:'Shadows Into Light, ';letter-spacing:0px;word-spacing:0px;fill:#000000;fill-opacity:1;stroke:none;stroke-width:1px;stroke-linecap:butt;stroke-linejoin:miter;stroke-opacity:1"
                 id="path4143"
                 inkscape:connector-curvature="0" />
            <path
                 d="m 155.03125,1030.0295 q 0.35157,-1.6406 0.58594,-4.2187 0.23438,-2.5781 0.58594,-6.7969 0.46875,-4.2187 0.9375,-10.4297 0.58594,-6.2109 1.52344,-15.11716 0.9375,-8.90625 2.10937,-20.85937 1.28906,-12.07032 3.28125,-28.00782 0.11719,-1.17187 1.05469,-1.40625 1.05469,-0.23437 1.875,-0.23437 1.28906,0 2.10937,0.9375 0.82032,0.9375 1.40625,2.10937 0.70313,1.17188 1.28907,2.46094 0.58593,1.28906 1.28906,2.10938 1.17187,2.69531 2.34375,6.21093 1.28906,3.51563 2.69531,7.5 1.40625,3.98438 2.8125,8.08594 1.40625,3.98438 2.8125,7.85156 1.40625,3.75 2.57813,7.03125 1.28906,3.16407 2.34375,5.27344 1.28906,-0.11719 3.63281,-0.9375 2.34375,-0.9375 5.03906,-1.75781 2.69531,-0.82031 5.27344,-1.28906 2.57812,-0.46875 4.33594,0 1.75781,0.35156 2.22656,1.99218 0.58594,1.64063 -0.82031,5.15625 -0.82032,0 -1.52344,-0.23437 -0.70313,-0.35156 -1.40625,-0.58594 -0.70313,-0.35156 -1.52344,-0.58594 -0.70312,-0.35156 -1.64062,-0.35156 -0.58594,0 -2.69532,0.70313 -1.99218,0.58593 -4.33593,1.40625 -2.34375,0.70312 -4.10157,1.52343 -1.75781,0.70313 -1.75781,1.05469 l 8.08594,31.75781 -3.04688,4.4531 q -1.99218,-3.3984 -3.39843,-7.7343 -1.28907,-4.4532 -2.46094,-8.7891 -1.17188,-4.4531 -2.46094,-8.2031 -1.17187,-3.8672 -3.04687,-6.4453 -2.46094,1.1718 -5.85938,1.9921 -3.39844,0.8204 -6.5625,2.1094 -3.16406,1.1719 -5.50781,3.2813 -2.22656,1.9922 -2.69531,5.5078 -0.23438,1.4062 -0.46875,3.75 -0.11719,2.3437 -0.35157,4.4531 -0.35156,2.5781 -0.58593,5.2734 l -5.97657,0 z m 13.47657,-69.0234 -0.23438,1.99219 q -0.11719,1.99219 -0.35156,4.6875 -0.23438,2.57813 -0.58594,5.39063 -0.23437,2.69531 -0.35156,4.57031 -0.58594,6.5625 -1.28906,13.00781 -0.58594,6.32813 -0.58594,13.00786 2.22656,0 4.6875,-0.586 2.57812,-0.5859 4.92187,-1.5234 2.34375,-1.0547 4.21875,-2.46096 1.99219,-1.52344 3.04688,-3.39844 -0.9375,-4.10156 -2.10938,-8.4375 -1.05468,-4.45312 -2.34375,-8.90625 -1.28906,-4.57031 -2.8125,-8.90625 -1.52343,-4.33593 -3.28125,-8.4375 -0.11718,-0.11718 -0.82031,-0.46875 -0.70312,-0.46875 -2.10937,0.46875 z"
                 style="font-style:normal;font-variant:normal;font-weight:normal;font-stretch:normal;font-size:120px;line-height:125%;font-family:'Shadows Into Light';-inkscape-font-specification:'Shadows Into Light, ';letter-spacing:0px;word-spacing:0px;fill:#000000;fill-opacity:1;stroke:none;stroke-width:1px;stroke-linecap:butt;stroke-linejoin:miter;stroke-opacity:1"
                 id="path4145"
                 inkscape:connector-curvature="0" />
            <path
                 d="m 201.78907,1012.0999 q 0,-3.75 0.70312,-10.1954 0.82031,-6.44527 2.34375,-13.82808 1.64063,-7.38282 3.98438,-14.88282 2.34375,-7.61718 5.50781,-13.71093 3.28125,-6.09375 7.38281,-9.96094 4.21875,-3.86719 9.25781,-3.86719 2.92969,0 4.92188,1.05469 2.10937,1.05469 3.39844,2.92969 1.40625,1.75781 1.99218,4.10156 0.70313,2.22656 0.70313,4.92187 -2.10938,0 -3.39844,-1.05468 -1.28906,-1.17188 -2.34375,-2.46094 -1.05469,-1.28906 -2.22656,-2.34375 -1.05469,-1.17188 -2.92969,-1.17188 -3.75,0 -6.91406,3.63282 -3.16406,3.51562 -5.74219,9.02343 -2.57812,5.50782 -4.57031,12.30469 -1.99219,6.67969 -3.39844,13.125 -1.28906,6.32813 -1.99219,11.60156 -0.70312,5.1563 -0.70312,7.7344 0,3.3984 0.35156,6.6797 0.35156,3.164 1.52344,5.7422 1.17187,2.5781 3.39844,4.2187 2.22656,1.5234 6.32812,1.5234 4.6875,0 9.25781,-3.0468 4.6875,-3.0469 8.67188,-7.3828 3.98437,-4.4532 6.91406,-9.375 2.92969,-5.0391 4.21875,-8.78911 0.23438,-0.11719 1.05469,-0.11719 0.82031,-0.11718 1.05469,-0.11718 1.40625,0 2.57812,0.35156 1.28906,0.23437 1.28906,2.10942 -0.70312,3.75 -3.28125,7.9687 -2.57812,4.1016 -6.09375,8.0859 -3.51562,3.9844 -7.73437,7.3829 -4.21875,3.3984 -8.20313,5.7421 -3.98437,2.3438 -7.38281,3.1641 -3.39844,0.9375 -5.50781,-0.1172 -3.86719,0 -6.67969,-2.1094 -2.69531,-2.2265 -4.45312,-5.3906 -1.64063,-3.164 -2.46094,-6.7969 -0.82031,-3.6328 -0.82031,-6.6796 z"
                 style="font-style:normal;font-variant:normal;font-weight:normal;font-stretch:normal;font-size:120px;line-height:125%;font-family:'Shadows Into Light';-inkscape-font-specification:'Shadows Into Light, ';letter-spacing:0px;word-spacing:0px;fill:#000000;fill-opacity:1;stroke:none;stroke-width:1px;stroke-linecap:butt;stroke-linejoin:miter;stroke-opacity:1"
                 id="path4147"
                 inkscape:connector-curvature="0" />
            <path
                 d="m 300.10938,1001.6702 q -1.17188,4.3359 -3.16406,9.6093 -1.875,5.1563 -4.80469,9.7266 -2.8125,4.5703 -6.79688,7.7344 -3.98437,3.0469 -9.25781,3.0469 -4.10156,0 -6.67969,-1.6407 -2.46093,-1.7578 -3.86718,-4.5703 -1.40625,-2.9297 -2.10938,-6.3281 -0.58594,-3.5156 -0.82031,-7.0313 -0.11719,-1.1718 -0.23438,-4.6875 -0.11718,-3.6328 -0.23437,-8.43746 -0.11719,-4.92187 -0.35156,-10.42969 -0.11719,-5.50781 -0.35157,-10.3125 -0.11718,-4.80468 -0.23437,-8.4375 -0.11719,-3.63281 -0.11719,-4.80468 -0.11719,-1.17188 0.11719,-1.75782 0.23437,-0.70312 0.82031,-0.9375 0.58594,-0.35156 1.28906,-0.35156 0.82032,-0.11719 1.40625,-0.11719 l 0.9375,0 q 0.70313,0 1.28907,0.11719 0.58593,0.11719 1.05468,0.58594 0.46875,0.35156 0.46875,1.05469 l 0,49.92188 q 0,2.1094 0.58594,4.2187 0.70313,2.1094 1.875,3.9844 1.17188,1.7578 2.92969,2.9297 1.75781,1.1719 3.98437,1.1719 4.45313,-0.3516 7.61719,-4.6875 3.28125,-4.4531 5.625,-11.1328 2.34375,-6.6797 3.86719,-14.53128 1.52344,-7.85157 2.69531,-15.11719 1.17188,-7.26563 1.99219,-12.89063 0.9375,-5.625 1.99219,-7.85156 2.22656,-1.99219 3.51562,-0.9375 1.28906,0.9375 1.875,3.04688 0.70313,1.99218 0.82031,4.45312 0.11719,2.34375 -0.23437,3.39844 0,7.85156 -0.82031,15.58594 -0.70313,7.73437 -0.70313,15.70308 0,5.0391 0.46875,10.0782 0.46875,5.039 1.05469,10.0781 0.58594,5.0391 1.05469,10.0781 0.46875,4.9219 0.46875,9.8438 0,0.9375 -0.11719,1.875 -0.11719,1.0547 -0.58594,1.875 -0.35156,0.8203 -1.05469,1.4062 -0.70312,0.586 -1.99218,0.586 0,0 -0.35157,-0.1172 -0.23437,0 -0.46875,0 l -4.45312,-45 z"
                 style="font-style:normal;font-variant:normal;font-weight:normal;font-stretch:normal;font-size:120px;line-height:125%;font-family:'Shadows Into Light';-inkscape-font-specification:'Shadows Into Light, ';letter-spacing:0px;word-spacing:0px;fill:#000000;fill-opacity:1;stroke:none;stroke-width:1px;stroke-linecap:butt;stroke-linejoin:miter;stroke-opacity:1"
                 id="path4149"
                 inkscape:connector-curvature="0" />
            <path
                 d="m 317.33594,1028.5061 q -0.23437,-14.8828 -0.58594,-25.4297 -0.23437,-10.66405 -0.46875,-17.92967 -0.23437,-7.26563 -0.58593,-11.48438 -0.23438,-4.33593 -0.35157,-6.91406 -0.11718,-2.57812 -0.23437,-3.63281 -0.11719,-1.17188 -0.11719,-2.22656 0,-1.99219 1.17188,-2.46094 1.17187,-0.58594 2.92968,-0.58594 1.99219,0 3.04688,0.82031 1.17187,0.70313 1.17187,3.86719 l 2.22657,63.04686 q 0.11718,0 1.17187,-0.2344 1.05469,-0.2343 2.46094,-0.7031 1.40625,-0.4687 2.92969,-0.9375 1.52343,-0.5859 2.46093,-1.0547 1.40625,-0.5859 4.21875,-1.875 2.8125,-1.289 6.32813,-2.9297 3.51562,-1.6406 7.38281,-3.3984 3.98438,-1.875 7.5,-3.3984 3.63281,-1.6407 6.32813,-2.9297 2.8125,-1.4063 4.21875,-1.9922 l 1.40625,0 q 0.70312,0 1.40625,0.1172 0.70312,0.1172 1.17187,0.5859 0.46875,0.4688 0.58594,1.4063 0,1.1718 -0.46875,1.9922 -0.35156,0.8203 -1.05469,1.875 -6.91406,1.289 -13.59375,4.6875 -6.5625,3.3984 -13.125,7.0312 -6.44531,3.6328 -13.125,6.4453 -6.5625,2.8125 -13.47656,2.8125 -2.92969,0 -2.92969,-4.5703 z"
                 style="font-style:normal;font-variant:normal;font-weight:normal;font-stretch:normal;font-size:120px;line-height:125%;font-family:'Shadows Into Light';-inkscape-font-specification:'Shadows Into Light, ';letter-spacing:0px;word-spacing:0px;fill:#000000;fill-opacity:1;stroke:none;stroke-width:1px;stroke-linecap:butt;stroke-linejoin:miter;stroke-opacity:1"
                 id="path4151"
                 inkscape:connector-curvature="0" />
            <path
                 d="m 388.11719,1031.553 q -2.46094,-18.5156 -3.04687,-38.20315 -0.58594,-19.80468 0,-38.20312 -1.05469,0.58594 -1.875,1.05469 -0.82032,0.46875 -1.99219,0.46875 -0.82031,0 -1.52344,-0.70313 -0.70312,-0.70312 -0.70312,-1.75781 l 0,-0.35156 q 0,-0.11719 0.11718,-0.35157 0.9375,-1.05468 2.22657,-3.63281 1.40625,-2.57812 2.92968,-5.03906 1.52344,-2.57813 2.92969,-4.45313 1.40625,-1.99218 2.46094,-1.99218 1.05469,0 1.52344,0.58593 0.58593,0.46875 0.9375,1.17188 0.35156,0.70312 0.70312,1.64062 0.46875,0.82032 1.28906,1.28907 3.51563,-2.10938 7.73438,-3.63282 4.21875,-1.52343 8.4375,-2.10937 4.33594,-0.58594 8.32031,-0.11719 4.10156,0.35156 7.38281,1.99219 3.28125,1.52344 5.625,4.45312 2.34375,2.92969 3.04688,7.38282 -0.11719,5.74218 -3.39844,10.89843 -3.16406,5.03907 -7.96875,9.25782 -4.6875,4.10156 -10.19531,7.38281 -5.50781,3.16406 -10.19531,5.50781 -4.57032,2.34375 -7.61719,3.75 -2.92969,1.40625 -2.69531,1.64063 l 0,42.07033 q 0,0.9375 -0.82032,1.289 -0.82031,0.3516 -1.52343,0.3516 -1.28907,0 -2.10938,-1.6406 z m 4.45313,-80.97658 q -0.35157,3.39843 -0.9375,7.5 -0.46875,3.98437 -0.70313,8.32031 -0.23437,4.21875 0,8.32031 0.35156,4.10156 1.64063,7.38281 5.03906,-2.22656 10.54687,-4.92187 5.50781,-2.8125 10.54688,-6.32813 5.03906,-3.51562 9.02343,-7.73437 4.10157,-4.33594 6.09375,-9.60938 0,-2.8125 -2.10937,-4.80468 -1.99219,-1.99219 -4.92188,-3.28125 -2.92968,-1.28907 -6.09375,-1.75782 -3.04687,-0.58593 -5.03906,-0.58593 -1.17187,0 -3.86719,0.70312 -2.57812,0.58594 -5.50781,1.64063 -2.8125,0.9375 -5.39062,2.34375 -2.46094,1.40625 -3.28125,2.8125 z"
                 style="font-style:normal;font-variant:normal;font-weight:normal;font-stretch:normal;font-size:120px;line-height:125%;font-family:'Shadows Into Light';-inkscape-font-specification:'Shadows Into Light, ';letter-spacing:0px;word-spacing:0px;fill:#000000;fill-opacity:1;stroke:none;stroke-width:1px;stroke-linecap:butt;stroke-linejoin:miter;stroke-opacity:1"
                 id="path4153"
                 inkscape:connector-curvature="0" />
            <path
                 d="m 440.26563,1030.0295 q 0.35156,-1.6406 0.58594,-4.2187 0.23437,-2.5781 0.58593,-6.7969 0.46875,-4.2187 0.9375,-10.4297 0.58594,-6.2109 1.52344,-15.11716 0.9375,-8.90625 2.10938,-20.85937 1.28906,-12.07032 3.28125,-28.00782 0.11718,-1.17187 1.05468,-1.40625 1.05469,-0.23437 1.875,-0.23437 1.28907,0 2.10938,0.9375 0.82031,0.9375 1.40625,2.10937 0.70312,1.17188 1.28906,2.46094 0.58594,1.28906 1.28906,2.10938 1.17188,2.69531 2.34375,6.21093 1.28907,3.51563 2.69532,7.5 1.40625,3.98438 2.8125,8.08594 1.40625,3.98438 2.8125,7.85156 1.40625,3.75 2.57812,7.03125 1.28906,3.16407 2.34375,5.27344 1.28906,-0.11719 3.63281,-0.9375 2.34375,-0.9375 5.03907,-1.75781 2.69531,-0.82031 5.27343,-1.28906 2.57813,-0.46875 4.33594,0 1.75781,0.35156 2.22656,1.99218 0.58594,1.64063 -0.82031,5.15625 -0.82031,0 -1.52344,-0.23437 -0.70312,-0.35156 -1.40625,-0.58594 -0.70312,-0.35156 -1.52343,-0.58594 -0.70313,-0.35156 -1.64063,-0.35156 -0.58594,0 -2.69531,0.70313 -1.99219,0.58593 -4.33594,1.40625 -2.34375,0.70312 -4.10156,1.52343 -1.75781,0.70313 -1.75781,1.05469 l 8.08593,31.75781 -3.04687,4.4531 q -1.99219,-3.3984 -3.39844,-7.7343 -1.28906,-4.4532 -2.46094,-8.7891 -1.17187,-4.4531 -2.46093,-8.2031 -1.17188,-3.8672 -3.04688,-6.4453 -2.46094,1.1718 -5.85937,1.9921 -3.39844,0.8204 -6.5625,2.1094 -3.16407,1.1719 -5.50782,3.2813 -2.22656,1.9922 -2.69531,5.5078 -0.23437,1.4062 -0.46875,3.75 -0.11719,2.3437 -0.35156,4.4531 -0.35156,2.5781 -0.58594,5.2734 l -5.97656,0 z m 13.47656,-69.0234 -0.23437,1.99219 q -0.11719,1.99219 -0.35157,4.6875 -0.23437,2.57813 -0.58593,5.39063 -0.23438,2.69531 -0.35157,4.57031 -0.58593,6.5625 -1.28906,13.00781 -0.58594,6.32813 -0.58594,13.00786 2.22657,0 4.6875,-0.586 2.57813,-0.5859 4.92188,-1.5234 2.34375,-1.0547 4.21875,-2.46096 1.99219,-1.52344 3.04687,-3.39844 -0.9375,-4.10156 -2.10937,-8.4375 -1.05469,-4.45312 -2.34375,-8.90625 -1.28906,-4.57031 -2.8125,-8.90625 -1.52344,-4.33593 -3.28125,-8.4375 -0.11719,-0.11718 -0.82031,-0.46875 -0.70313,-0.46875 -2.10938,0.46875 z"
                 style="font-style:normal;font-variant:normal;font-weight:normal;font-stretch:normal;font-size:120px;line-height:125%;font-family:'Shadows Into Light';-inkscape-font-specification:'Shadows Into Light, ';letter-spacing:0px;word-spacing:0px;fill:#000000;fill-opacity:1;stroke:none;stroke-width:1px;stroke-linecap:butt;stroke-linejoin:miter;stroke-opacity:1"
                 id="path4155"
                 inkscape:connector-curvature="0" />
        </g>
    </g>
</svg>
